name C:/MyDriveSym/Projects/mobilecap/Data\Session20210903_0002\mocap\ForceDataProcessed\walking3_forces.mot
datacolumns 19
datarows 17
range 0.97450000 0.98250000
endheader 
time	R_ground_force_vx	R_ground_force_vy	R_ground_force_vz	R_ground_force_px	R_ground_force_py	R_ground_force_pz	R_ground_torque_x	R_ground_torque_y	R_ground_torque_z	L_ground_force_vx	L_ground_force_vy	L_ground_force_vz	L_ground_force_px	L_ground_force_py	L_ground_force_pz	L_ground_torque_x	L_ground_torque_y	L_ground_torque_z	
          0.97450000	          0.00000000	          0.00000000	          0.00000000	          1.25906900	          0.00000000	         -0.17473500	          0.00000000	          0.00000000	          0.00000000	         31.26969700	        524.10696800	         20.13548900	          0.97256600	          0.00600000	         -0.29150500	          0.00000000	          1.26652700	          0.00000000	
          0.97500000	          0.00000000	          0.00000000	          0.00000000	          1.26082000	          0.00000000	         -0.17475000	          0.00000000	          0.00000000	          0.00000000	         31.62465600	        524.79219300	         20.16623200	          0.97265200	          0.00600000	         -0.29148300	          0.00000000	          1.26208700	          0.00000000	
          0.97550000	          0.00000000	          0.00000000	          0.00000000	          1.26257000	          0.00000000	         -0.17476600	          0.00000000	          0.00000000	          0.00000000	         31.98064600	        525.47636700	         20.19684000	          0.97273800	          0.00600000	         -0.29146200	          0.00000000	          1.25759400	          0.00000000	
          0.97600000	          0.00000000	          0.00000000	          0.00000000	          1.26432100	          0.00000000	         -0.17478200	          0.00000000	          0.00000000	          0.00000000	         32.33765800	        526.15942000	         20.22730400	          0.97282400	          0.00600000	         -0.29144000	          0.00000000	          1.25304700	          0.00000000	
          0.97650000	          0.00000000	          0.00000000	          0.00000000	          1.26607100	          0.00000000	         -0.17479800	          0.00000000	          0.00000000	          0.00000000	         32.69568500	        526.84128300	         20.25761800	          0.97291000	          0.00600000	         -0.29141900	          0.00000000	          1.24844700	          0.00000000	
          0.97700000	          0.00000000	          0.00000000	          0.00000000	          1.26782200	          0.00000000	         -0.17481400	          0.00000000	          0.00000000	          0.00000000	         33.05471700	        527.52188300	         20.28777400	          0.97299500	          0.00600000	         -0.29139700	          0.00000000	          1.24379600	          0.00000000	
          0.97750000	          0.00000000	          0.00000000	          0.00000000	          1.26957200	          0.00000000	         -0.17483000	          0.00000000	          0.00000000	          0.00000000	         33.41474600	        528.20115000	         20.31776500	          0.97308100	          0.00600000	         -0.29137500	          0.00000000	          1.23909400	          0.00000000	
          0.97800000	          0.00000000	          0.00000000	          0.00000000	          1.27132200	          0.00000000	         -0.17484500	          0.00000000	          0.00000000	          0.00000000	         33.77576300	        528.87901300	         20.34758200	          0.97316600	          0.00600000	         -0.29135400	          0.00000000	          1.23434200	          0.00000000	
          0.97850000	          0.00000000	          0.00000000	          0.00000000	          1.27307300	          0.00000000	         -0.17486100	          0.00000000	          0.00000000	          0.00000000	         34.13775700	        529.55540000	         20.37721900	          0.97325100	          0.00600000	         -0.29133200	          0.00000000	          1.22953900	          0.00000000	
          0.97900000	          0.00000000	          0.00000000	          0.00000000	          1.27482300	          0.00000000	         -0.17487700	          0.00000000	          0.00000000	          0.00000000	         34.50072100	        530.23023900	         20.40666700	          0.97333500	          0.00600000	         -0.29131100	          0.00000000	          1.22468800	          0.00000000	
          0.97950000	          0.00000000	          0.00000000	          0.00000000	          1.27657400	          0.00000000	         -0.17489300	          0.00000000	          0.00000000	          0.00000000	         34.86464400	        530.90345700	         20.43591900	          0.97342000	          0.00600000	         -0.29128900	          0.00000000	          1.21978800	          0.00000000	
          0.98000000	          0.00000000	          0.00000000	          0.00000000	          1.27832400	          0.00000000	         -0.17490900	          0.00000000	          0.00000000	          0.00000000	         35.22951500	        531.57498300	         20.46496800	          0.97350400	          0.00600000	         -0.29126700	          0.00000000	          1.21484100	          0.00000000	
          0.98050000	          0.00000000	          0.00000000	          0.00000000	          1.28007500	          0.00000000	         -0.17492500	          0.00000000	          0.00000000	          0.00000000	         35.59532600	        532.24474200	         20.49380500	          0.97358900	          0.00600000	         -0.29124600	          0.00000000	          1.20984600	          0.00000000	
          0.98100000	          0.00000000	          0.00000000	          0.00000000	          1.28182500	          0.00000000	         -0.17494000	          0.00000000	          0.00000000	          0.00000000	         35.96206600	        532.91266100	         20.52242400	          0.97367300	          0.00600000	         -0.29122400	          0.00000000	          1.20480500	          0.00000000	
          0.98150000	          0.00000000	          0.00000000	          0.00000000	          1.28357500	          0.00000000	         -0.17495600	          0.00000000	          0.00000000	          0.00000000	         36.32972300	        533.57866600	         20.55081500	          0.97375700	          0.00600000	         -0.29120200	          0.00000000	          1.19971900	          0.00000000	
          0.98200000	          0.00000000	          0.00000000	          0.00000000	          1.28532600	          0.00000000	         -0.17497200	          0.00000000	          0.00000000	          0.00000000	         36.69828800	        534.24268400	         20.57897200	          0.97384000	          0.00600000	         -0.29118100	          0.00000000	          1.19458800	          0.00000000	
          0.98250000	          0.00000000	          0.00000000	          0.00000000	          1.28707600	          0.00000000	         -0.17498800	          0.00000000	          0.00000000	          0.00000000	         37.06775000	        534.90464000	         20.60688600	          0.97392400	          0.00600000	         -0.29115900	          0.00000000	          1.18941200	          0.00000000	
